<svg xmlns="http://www.w3.org/2000/svg" viewBox="0 0 64 64" fill="none">
  <defs>
    <linearGradient id="av-ivory" x1="17" y1="11" x2="49" y2="58" gradientUnits="userSpaceOnUse"><stop stop-color="#fffef4"/><stop offset=".32" stop-color="#f2f4e9"/><stop offset=".62" stop-color="#d9ddcf"/><stop offset=".81" stop-color="#fcf8e7"/><stop offset="1" stop-color="#b6a47c"/></linearGradient>
    <linearGradient id="av-edge" x1="10" y1="20" x2="48" y2="63" gradientUnits="userSpaceOnUse"><stop stop-color="#ffedb9"/><stop offset=".32" stop-color="#8d7245"/><stop offset=".61" stop-color="#f4d699"/><stop offset="1" stop-color="#72582e"/></linearGradient>
    <radialGradient id="av-core" cx="0" cy="0" r="1" gradientTransform="translate(25 34) rotate(57) scale(29 24)" gradientUnits="userSpaceOnUse"><stop stop-color="#347858"/><stop offset=".37" stop-color="#164c34"/><stop offset=".78" stop-color="#082519"/><stop offset="1" stop-color="#04120c"/></radialGradient>
    <linearGradient id="av-core-edge" x1="23" y1="32" x2="42" y2="55" gradientUnits="userSpaceOnUse"><stop stop-color="#06170f"/><stop offset=".5" stop-color="#526953"/><stop offset="1" stop-color="#d4c18e"/></linearGradient>
  </defs>
  <path d="M33 5c-7.5 0-12.1 10.5-16.4 21.4C12.4 36.5 8.3 41 9.2 48.4 10.5 58.5 20.6 63 33 63s22.5-4.5 23.8-14.6c.9-7.4-3.2-11.9-7.4-22C45.1 15.5 40.5 5 33 5Z" fill="#0c1510" stroke="#80683c" stroke-width=".9"/>
  <path d="M31.3 3.8c-7.2 0-11.9 10.2-16.1 21C11.2 34.6 7.2 39.3 8.2 46.8 9.4 56.3 19.2 61 31.3 61s21.9-4.7 23.1-14.2c1-7.5-3-12.2-7-22C43.2 14 38.5 3.8 31.3 3.8Z" fill="url(#av-ivory)" stroke="url(#av-edge)" stroke-width="1.2"/>
  <path d="M16.2 26.2C21.5 13 25.2 5.6 31.3 5.6c4.1 0 7.3 3.5 10.7 10.1" stroke="#fffef5" stroke-width="1.25" stroke-linecap="round" opacity=".85"/>
  <ellipse cx="31.5" cy="42.8" rx="14.2" ry="15.4" fill="#9d9b7b" opacity=".42"/>
  <ellipse cx="31.1" cy="41.9" rx="12.8" ry="14.1" fill="url(#av-core)" stroke="url(#av-core-edge)" stroke-width="1.1"/>
  <path d="M22.1 38.9c1-4.4 3.9-7.3 7.4-8.1" stroke="#8ff0a6" stroke-opacity=".35" stroke-width="1.2" stroke-linecap="round"/>
  <path d="M41.7 47.5c-1.7 4.5-5.6 7.1-9.6 7.2" stroke="#d8d7ad" stroke-opacity=".5" stroke-width=".8" stroke-linecap="round"/>
</svg>
